<svg width="40" height="40" viewBox="0 0 40 40" fill="none" xmlns="http://www.w3.org/2000/svg">
<path opacity="0.6" d="M0 20C0 25.3043 2.10714 30.3914 5.85786 34.1421C9.60859 37.8929 14.6957 40 20 40C25.3043 40 30.3914 37.8929 34.1421 34.1421C37.8929 30.3914 40 25.3043 40 20C40 14.6957 37.8929 9.60859 34.1421 5.85786C30.3914 2.10714 25.3043 0 20 0C14.6957 0 9.60859 2.10714 5.85786 5.85786C2.10714 9.60859 0 14.6957 0 20ZM18.8281 29.4531C18.0938 30.1875 16.9062 30.1875 16.1797 29.4531C15.4531 28.7188 15.4453 27.5312 16.1797 26.8047L22.9766 20.0078L16.1797 13.2109C15.4453 12.4766 15.4453 11.2891 16.1797 10.5625C16.9141 9.83594 18.1016 9.82812 18.8281 10.5625L26.9531 18.6719C27.6875 19.4062 27.6875 20.5938 26.9531 21.3203L18.8281 29.4531Z" fill="white"/>
</svg>
